<svg xmlns="http://www.w3.org/2000/svg" viewBox="0 0 416.26 113"><title>tllongdevLogoWhtDot</title><circle cx="56.5" cy="56.5" r="56.5" style="fill:#ededed"/><path d="M28.12,42.15,31.2,27.34,46.84,22,43.67,37.8H55.55L52.47,51.85H40.59L35.74,74.42c-.79,4.55-1.48,7.42,5,7.42a38.23,38.23,0,0,0,5.05-.29l-2.08,9.6a48.35,48.35,0,0,1-11.68,1.58c-14.75,0-12.77-9.3-11.88-13.46L26,51.85" style="fill:#232323"/><path d="M62.22,20.27H76.88L61.63,91.84H47Z" style="fill:#232323"/><path d="M84.67,20.27H99.32L84.07,91.84H69.42Z" style="fill:#232323"/><g style="opacity:0.75"><path d="M124.82,40.7c18.12,0,23.36,12.28,20.39,26.24s-13.86,26.72-32,26.72c-14.26,0-23.66-8.81-19.9-26.33C95.91,55.25,105.12,40.7,124.82,40.7Zm-8.91,42.77c6.44,0,11.58-3.86,14.45-17.13,1.39-6.63,2.08-15.84-7.62-15.84-10.69,0-13.46,12.38-14.35,16.93C105.91,78.62,108.68,83.47,115.91,83.47Z" style="fill:#bfbfbf"/><path d="M153.9,50.8c.09-.2,1.18-5.65,1.68-9.11h14.06l-1.19,7.52a21.89,21.89,0,0,1,18-8.71c9.8,0,12.77,5.94,13.26,9.41.5,3.07.2,5.64-1.78,15l-5.74,27h-15l6.63-31.08c.4-2.08.79-3.86.3-5.45-.59-2.18-2.38-4.25-6.14-4.25A11.61,11.61,0,0,0,169.54,55a17.11,17.11,0,0,0-3.37,7.62l-6.24,29.3H145.18Z" style="fill:#bfbfbf"/><path d="M326.37,70.6C325.68,73.86,323.5,84,333.69,84c3.67,0,7.63-1.38,10.2-6.93h13.37a21.33,21.33,0,0,1-7,10.89c-4.56,3.86-11.49,5.84-18.81,5.84-4.26,0-12.18-.79-16.34-6.23-3.46-4.75-4-11.49-2.27-19.51s5.74-17.82,15.44-23.66A29.76,29.76,0,0,1,343.2,40.2c7.13,0,15.05,2.78,17.62,12.08,1.88,6.83.2,14.16-.89,18.32Zm20.49-9.21c.5-2.28,2.18-11.19-6.33-11.19-6.44,0-10.2,5.35-11.79,11.19Z" style="fill:#bfbfbf"/><path d="M379.33,41.89l4.06,34L402.1,41.89h14.16l-28.61,50H371.41l-7.72-50Z" style="fill:#bfbfbf"/><path d="M302.86,20.4,297,48c-.9-1.79-3.57-6.84-12.58-6.84-13.06,0-24.25,10.3-27.82,26.83a36.55,36.55,0,0,0-.81,9.33,8.47,8.47,0,0,1,4.83,11.57c2.85,2.58,6.88,4,12,4a20,20,0,0,0,10.2-2.57,18.23,18.23,0,0,0,6.33-5.64L288,91.88h14.85c.2-1.88.69-5.15,1.28-8.12L317.61,20.4Zm-9.11,45.54c-.6,2.48-1.88,7.63-4.95,11.79a13.55,13.55,0,0,1-10.49,5.64c-7.33,0-8.52-7.43-6.74-15.74,1.09-5,4.66-16.83,14.46-16.83C292.66,50.8,295.83,56.14,293.75,65.94Z" style="fill:#bfbfbf"/><path d="M244.44,85.34a8.5,8.5,0,0,1,4.6-7.55L254,54.46a114,114,0,0,1,3.37-12.37H243.59l-1.88,6.63c-1.09-2.18-3.37-7.13-12.48-7.13-14.35,0-23.95,12.08-26.63,24.75-2.57,12.08,1.49,24.55,15.84,24.55,3.57,0,9-.69,14.95-6.83-1.78,7.62-2.08,9.41-3.27,11.88-1.88,4.46-6.13,6.54-10.49,6.54-3.86,0-5.74-1.39-6.53-2.88a7.63,7.63,0,0,1-.7-4H198.35c-2.28,15.14,11.48,16,18.61,16,9.6,0,25.34-1.78,29.2-20.19l.16-.73A8.49,8.49,0,0,1,244.44,85.34Zm-7.19-18.7c-.39,2.18-3,14.25-13.26,14.25-9.8,0-7.23-12.07-6.73-14.55,2.27-10.69,7.72-15,13.26-15C239.43,51.39,238.44,61,237.25,66.64Z" style="fill:#bfbfbf"/><circle cx="252.94" cy="85.34" r="4.5" style="fill:#bfbfbf"/></g></svg>