<svg width="192" height="44" viewBox="0 0 397.74 91.28" fill="none" 
    xmlns="http://www.w3.org/2000/svg">
<title>tllongdevLogoWht</title><path d="M8.54,21.88l3.07-14.8L27.26,1.73l-3.17,15.8H36l-3.08,14H21L16.16,54.15c-.79,4.56-1.49,7.43,5.05,7.43a38.22,38.22,0,0,0,5.05-.3l-2.08,9.6A48.47,48.47,0,0,1,12.5,72.47C-2.26,72.47-.28,63.16.62,59L6.46,31.58" style="fill:#ededed"/><path d="M42.64,0H57.29L42.05,71.58H27.39Z" style="fill:#ededed"/><path d="M65.08,0H79.74L64.49,71.58H49.84Z" style="fill:#ededed"/><path d="M106.3,20.39c18.11,0,23.36,12.28,20.39,26.24s-13.86,26.73-32,26.73c-14.25,0-23.66-8.81-19.89-26.34C77.39,35,86.6,20.39,106.3,20.39ZM97.39,63.16c6.43,0,11.58-3.86,14.45-17.13,1.39-6.63,2.08-15.84-7.62-15.84-10.69,0-13.47,12.38-14.36,16.93C87.39,58.31,90.16,63.16,97.39,63.16Z" style="fill:#ededed"/><path d="M135.37,30.49c.1-.2,1.19-5.64,1.69-9.11h14.05l-1.18,7.53a21.84,21.84,0,0,1,18-8.71c9.8,0,12.77,5.94,13.27,9.4.49,3.07.2,5.64-1.78,14.95l-5.74,27H158.74l6.63-31.09c.4-2.08.79-3.86.3-5.44-.6-2.18-2.38-4.26-6.14-4.26A11.63,11.63,0,0,0,151,34.65a17.3,17.3,0,0,0-3.36,7.62l-6.24,29.31H126.66Z" style="fill:#ededed"/><path d="M307.85,50.29c-.7,3.27-2.88,13.37,7.32,13.37,3.66,0,7.62-1.39,10.2-6.93h13.36a21.34,21.34,0,0,1-7,10.89c-4.55,3.86-11.48,5.84-18.81,5.84-4.25,0-12.17-.79-16.33-6.24-3.47-4.75-4-11.48-2.28-19.5S300,29.9,309.73,24.06a29.66,29.66,0,0,1,14.95-4.16c7.12,0,15,2.77,17.62,12.08,1.88,6.83.19,14.15-.89,18.31Zm20.49-9.21c.49-2.27,2.18-11.18-6.34-11.18-6.43,0-10.19,5.34-11.78,11.18Z" style="fill:#ededed"/><path d="M360.81,21.58l4.06,34,18.71-34h14.16l-28.61,50H352.89l-7.72-50Z" style="fill:#ededed"/><path d="M284.33.1l-5.84,27.62c-.89-1.78-3.56-6.83-12.57-6.83-13.07,0-24.25,10.29-27.82,26.83a36,36,0,0,0-.81,9.32,8.48,8.48,0,0,1,4.83,11.58c2.84,2.57,6.87,3.95,12,3.95A20,20,0,0,0,264.34,70a18.23,18.23,0,0,0,6.33-5.64l-1.19,7.23h14.85c.2-1.88.7-5.15,1.29-8.12L299.08.1Zm-9.1,45.54c-.6,2.47-1.89,7.62-5,11.78a13.52,13.52,0,0,1-10.5,5.64c-7.32,0-8.51-7.42-6.73-15.74,1.09-5,4.65-16.83,14.45-16.83C274.14,30.49,277.3,35.84,275.23,45.64Z" style="fill:#ededed"/><path d="M225.92,65a8.49,8.49,0,0,1,4.6-7.54l4.94-23.34a114.61,114.61,0,0,1,3.37-12.37H225.07l-1.89,6.63c-1.08-2.18-3.36-7.12-12.47-7.12-14.35,0-24,12.07-26.63,24.74-2.57,12.08,1.49,24.56,15.84,24.56,3.56,0,9-.7,15-6.84-1.78,7.63-2.08,9.41-3.27,11.88-1.88,4.46-6.14,6.54-10.49,6.54-3.86,0-5.74-1.39-6.54-2.87a7.65,7.65,0,0,1-.69-4.06H179.82c-2.27,15.15,11.49,16,18.61,16,9.61,0,25.35-1.78,29.21-20.2l.15-.73A8.46,8.46,0,0,1,225.92,65Zm-7.19-18.7c-.4,2.18-3,14.26-13.27,14.26-9.8,0-7.22-12.08-6.73-14.56C201,35.34,206.45,31.09,212,31.09,220.91,31.09,219.92,40.69,218.73,46.33Z" style="fill:#ededed"/><circle cx="234.42" cy="65.03" r="4.5" style="fill:#ededed"/></svg>
