<svg xmlns="http://www.w3.org/2000/svg" viewBox="0 0 417.96 114"><title>tllongdevLogoWhtDotOutlined</title><path d="M155,51.22c.1-.2,1.19-5.65,1.68-9.11h14.06l-1.19,7.52a21.91,21.91,0,0,1,18-8.71c9.8,0,12.77,5.94,13.27,9.41.49,3.07.2,5.64-1.78,15l-5.75,27H178.32L185,61.22c.39-2.08.79-3.86.3-5.45-.6-2.18-2.38-4.26-6.14-4.26a11.67,11.67,0,0,0-8.52,3.86A17.24,17.24,0,0,0,167.23,63L161,92.3H146.24Z" style="fill:#ededed"/><path d="M327.42,71c-.69,3.26-2.87,13.36,7.33,13.36,3.66,0,7.62-1.38,10.2-6.93h13.36a21.3,21.3,0,0,1-7,10.89c-4.55,3.86-11.48,5.84-18.81,5.84-4.25,0-12.17-.79-16.33-6.23-3.47-4.76-4-11.49-2.28-19.51s5.74-17.82,15.45-23.66a29.75,29.75,0,0,1,14.94-4.16c7.13,0,15.05,2.78,17.63,12.08,1.88,6.83.19,14.16-.89,18.32Zm20.5-9.21c.49-2.28,2.18-11.19-6.34-11.19-6.43,0-10.2,5.35-11.78,11.19Z" style="fill:#ededed"/><path d="M380.39,42.31l4.06,34,18.71-33.95h14.16l-28.61,50H372.47l-7.72-50Z" style="fill:#ededed"/><path d="M303.91,20.82l-5.84,27.63c-.89-1.79-3.56-6.84-12.57-6.84-13.07,0-24.26,10.3-27.82,26.83a36.06,36.06,0,0,0-.81,9.32,8.48,8.48,0,0,1,4.83,11.58c2.84,2.57,6.87,4,12,4a20,20,0,0,0,10.2-2.57,18.14,18.14,0,0,0,6.33-5.65l-1.19,7.23h14.85c.2-1.88.7-5.15,1.29-8.12l13.46-63.36Zm-9.1,45.54c-.6,2.48-1.89,7.63-4.95,11.78a13.53,13.53,0,0,1-10.5,5.65c-7.32,0-8.51-7.43-6.73-15.74,1.09-5,4.65-16.83,14.45-16.83C293.72,51.22,296.88,56.56,294.81,66.36Z" style="fill:#ededed"/><path d="M245.5,85.76a8.5,8.5,0,0,1,4.6-7.55L255,54.88a114.19,114.19,0,0,1,3.37-12.38H244.65l-1.89,6.64C241.67,47,239.4,42,230.29,42c-14.35,0-24,12.08-26.63,24.75-2.57,12.08,1.48,24.55,15.84,24.55,3.56,0,9-.69,14.95-6.83-1.78,7.62-2.08,9.41-3.27,11.88-1.88,4.46-6.14,6.53-10.49,6.53-3.86,0-5.74-1.38-6.54-2.87a7.63,7.63,0,0,1-.69-4.06H199.4c-2.27,15.15,11.49,16,18.61,16,9.61,0,25.35-1.78,29.21-20.19l.15-.73A8.48,8.48,0,0,1,245.5,85.76Zm-7.19-18.7c-.4,2.18-3,14.25-13.27,14.25-9.8,0-7.22-12.07-6.73-14.55,2.28-10.69,7.72-15,13.27-15C240.49,51.81,239.5,61.41,238.31,67.06Z" style="fill:#ededed"/><circle cx="254" cy="85.76" r="4.5" style="fill:#ededed"/><path d="M125.88,41.12A32.31,32.31,0,0,0,112,44a56.47,56.47,0,0,1,1.5,12.76c2.16-3.27,5.4-5.88,10.31-5.88,9.7,0,9,9.21,7.62,15.84C128.55,80,123.4,83.89,117,83.89c-4.12,0-6.79-1.59-7.87-5A56.3,56.3,0,0,1,102,91.16a24.45,24.45,0,0,0,12.29,2.92c18.12,0,28.91-12.67,32-26.73S144,41.12,125.88,41.12Z" style="fill:#ededed"/><path d="M109.1,78.88A56.31,56.31,0,0,0,113.5,57a1.34,1.34,0,0,0,0-.2c-2.53,3.84-3.57,8.59-4,11C108.38,72.66,108.29,76.29,109.1,78.88Z" style="fill:#ededed"/><path d="M94.39,67.75C96.26,59,101.64,48.9,112,44a56.5,56.5,0,1,0-10,47.12C95.25,87.26,91.88,79.45,94.39,67.75Z" style="fill:#ededed;stroke:#ededed;stroke-miterlimit:10"/><path d="M28.62,42.65,31.7,27.84,47.34,22.5,44.17,38.3H56.05L53,52.35H41.09L36.24,74.92c-.79,4.55-1.48,7.42,5,7.42a38.23,38.23,0,0,0,5.05-.29l-2.08,9.6a48.35,48.35,0,0,1-11.68,1.58c-14.75,0-12.77-9.3-11.88-13.46l5.84-27.42" style="fill:#232323"/><path d="M62.72,20.77H77.38L62.13,92.34H47.48Z" style="fill:#232323"/><path d="M85.17,20.77H99.82L84.57,92.34H69.92Z" style="fill:#232323"/><path d="M109.44,67.85c.48-2.46,1.52-7.21,4-11A56.47,56.47,0,0,0,112,44C101.64,48.9,96.26,59,94.39,67.75c-2.51,11.7.86,19.51,7.61,23.41a56.3,56.3,0,0,0,7.1-12.28C108.29,76.29,108.38,72.66,109.44,67.85Z" style="fill:#ededed;opacity:0.85"/></svg>